<svg width="30" height="30" viewBox="0 0 30 30" fill="none" xmlns="http://www.w3.org/2000/svg">
<path fill-rule="evenodd" clip-rule="evenodd" d="M10.8 5.92126C12.1166 5.31326 13.5498 4.99891 15 5.00001C16.7571 4.99972 18.4833 5.46241 20.0047 6.3415C21.5261 7.22059 22.789 8.48504 23.6663 10.0075H22.7438C21.9313 10.0075 21.2725 10.32 21.2725 11.1325C21.2725 11.545 21.2725 13.6825 18.74 13.6425C16.275 13.6425 16.275 11.4775 16.275 11.1325C16.275 9.34626 15.2913 9.07001 14.085 8.72876C13.6175 8.59751 13.1175 8.45626 12.6275 8.21501C11.3725 7.59376 10.9425 6.73626 10.8 5.92126ZM7.50001 5.00001C6.04772 6.09355 4.84872 7.48783 3.98501 9.08751C3.00769 10.9048 2.4974 12.9366 2.50001 15C2.50001 21.6113 7.63251 27.0238 14.13 27.47L14.1975 27.475C14.6782 27.5057 15.1602 27.5087 15.6413 27.4838H15.6438C16.2739 27.452 16.9006 27.3726 17.5188 27.2463C18.4942 27.0457 19.4422 26.7293 20.3425 26.3038C23.1673 24.9639 25.3903 22.6179 26.5763 19.725C27.1905 18.2257 27.5044 16.6203 27.5 15C27.501 13.9459 27.3687 12.8959 27.1063 11.875C26.4133 9.19128 24.8481 6.81398 22.6566 5.11692C20.4651 3.41986 17.7718 2.49931 15 2.50001C12.2948 2.49639 9.66201 3.37398 7.50001 5.00001ZM24.215 18.8913C23.911 18.799 23.5952 18.7519 23.2775 18.7513H23.0063C21.8776 18.7513 20.7952 19.1995 19.9971 19.9974C19.1989 20.7954 18.7503 21.8777 18.75 23.0063V24.2738C21.2127 23.2736 23.178 21.3386 24.215 18.8913ZM15.1425 25H15C13.2384 25.0002 11.508 24.5351 9.98396 23.6516C8.4599 22.7682 7.19624 21.4979 6.32088 19.9692C5.44552 18.4404 4.98952 16.7076 4.99902 14.9461C5.00853 13.1845 5.4832 11.4567 6.37501 9.93751C7.56251 10.6138 8.15126 11.8588 8.66876 12.9563C8.93001 13.5075 9.17251 14.0225 9.46501 14.4088C10.14 15.2988 10.7938 15.6825 11.4538 16.0688C12.1038 16.45 12.7625 16.835 13.4538 17.7138C15.2538 19.995 15.2275 23.1713 15.1413 24.9988L15.1425 25Z" fill="#64748B"/>
</svg>
